<?xml version="1.0" standalone="no"?>
<!DOCTYPE svg PUBLIC "-//W3C//DTD SVG 20010904//EN"
 "http://www.w3.org/TR/2001/REC-SVG-20010904/DTD/svg10.dtd">
<svg version="1.0" xmlns="http://www.w3.org/2000/svg"
 width="398.000000pt" height="398.000000pt" viewBox="0 0 398.000000 398.000000"
 preserveAspectRatio="xMidYMid meet">
<metadata>
Created by potrace 1.14, written by Peter Selinger 2001-2017
</metadata>
<g transform="translate(0.000000,398.000000) scale(0.100000,-0.100000)"
fill="#000000" stroke="none">
<path d="M30 3965 c0 -8 -7 -15 -15 -15 -13 0 -15 -224 -15 -1960 0 -1736 2
-1960 15 -1960 8 0 15 -7 15 -15 0 -13 224 -15 1960 -15 1736 0 1960 2 1960
15 0 8 7 15 15 15 13 0 15 224 15 1960 0 1736 -2 1960 -15 1960 -8 0 -15 7
-15 15 0 13 -224 15 -1960 15 -1736 0 -1960 -2 -1960 -15z m2020 -560 c0 -11
12 -15 49 -15 31 0 55 -6 65 -15 9 -9 33 -15 60 -15 34 0 46 -4 46 -15 0 -11
12 -15 45 -15 33 0 45 -4 45 -15 0 -8 9 -15 19 -15 11 0 26 -6 33 -13 7 -8 26
-17 42 -21 16 -4 35 -14 43 -21 8 -8 23 -15 34 -15 10 0 19 -7 19 -15 0 -8 7
-15 15 -15 8 0 15 -7 15 -15 0 -10 10 -15 30 -15 20 0 30 -5 30 -15 0 -8 7
-15 15 -15 8 0 15 -7 15 -15 0 -8 9 -15 20 -15 11 0 20 -7 20 -15 0 -8 7 -15
15 -15 8 0 15 -7 15 -15 0 -8 7 -15 15 -15 8 0 15 -7 15 -15 0 -8 7 -15 15
-15 8 0 15 -7 15 -15 0 -8 7 -15 15 -15 8 0 15 -7 15 -15 0 -8 7 -15 15 -15 8
0 15 -9 15 -20 0 -11 7 -20 15 -20 8 0 15 -7 15 -15 0 -8 6 -15 14 -15 8 0 17
-13 21 -30 4 -16 11 -30 16 -30 5 0 9 -7 9 -15 0 -8 6 -15 14 -15 8 0 17 -13
21 -29 3 -16 13 -32 21 -35 8 -3 14 -12 14 -20 0 -8 5 -16 11 -18 5 -2 13 -22
16 -46 3 -26 11 -42 19 -42 9 0 14 -11 14 -30 0 -20 5 -30 15 -30 11 0 15 -12
15 -50 0 -40 3 -48 15 -44 12 5 15 -4 16 -47 1 -30 1 -57 0 -61 0 -5 6 -8 14
-8 13 0 15 -37 15 -271 0 -237 -2 -270 -15 -265 -12 4 -15 -6 -15 -59 0 -51
-3 -65 -15 -65 -11 0 -15 -12 -15 -45 0 -33 -4 -45 -15 -45 -10 0 -15 -11 -15
-35 0 -24 -5 -35 -15 -35 -10 0 -15 -10 -15 -30 0 -20 -5 -30 -15 -30 -10 0
-15 -10 -15 -30 0 -19 -5 -30 -14 -30 -8 0 -17 -13 -21 -29 -3 -16 -13 -32
-21 -35 -8 -3 -14 -12 -14 -21 0 -8 -7 -15 -15 -15 -9 0 -15 -9 -15 -24 0 -13
-7 -26 -15 -30 -8 -3 -15 -12 -15 -21 0 -8 -7 -15 -15 -15 -8 0 -15 -7 -15
-15 0 -8 -7 -15 -15 -15 -8 0 -15 -7 -15 -15 0 -8 -7 -15 -15 -15 -8 0 -15 -7
-15 -15 0 -13 46 -15 355 -15 l355 0 0 -200 0 -200 -929 0 c-685 0 -930 3
-933 11 -2 7 -36 14 -81 17 -53 3 -77 9 -77 17 0 7 -6 13 -12 12 -68 -2 -108
4 -108 18 0 10 -10 15 -30 15 -20 0 -30 5 -30 15 0 10 -11 15 -35 15 -24 0
-35 5 -35 15 0 10 -10 15 -30 15 -20 0 -30 5 -30 15 0 10 -10 15 -30 15 -20 0
-30 5 -30 15 0 8 -7 15 -15 15 -8 0 -15 7 -15 15 0 8 -9 15 -20 15 -10 0 -34
16 -53 35 -19 19 -37 35 -41 35 -4 0 -21 14 -38 30 -16 16 -35 30 -43 30 -7 0
-15 7 -19 15 -3 8 -12 15 -21 15 -10 0 -15 10 -15 30 0 20 -5 30 -15 30 -8 0
-15 7 -15 15 0 8 -7 15 -15 15 -8 0 -15 7 -15 15 0 8 -7 15 -15 15 -8 0 -15 7
-15 15 0 9 -6 18 -14 21 -8 3 -18 19 -21 35 -4 16 -13 29 -21 29 -8 0 -14 7
-14 15 0 8 -4 15 -9 15 -5 0 -12 13 -16 30 -4 16 -10 30 -15 30 -5 0 -11 14
-15 30 -4 17 -13 30 -21 30 -10 0 -14 13 -14 45 0 33 -4 45 -15 45 -11 0 -15
12 -15 50 0 36 -4 50 -14 50 -8 0 -15 16 -19 41 -3 23 -10 45 -15 48 -5 3 -11
46 -13 95 -3 60 -8 91 -17 94 -17 5 -17 209 0 214 7 3 13 38 16 97 3 66 8 94
18 98 10 4 14 23 14 64 0 46 3 59 15 59 11 0 15 12 15 45 0 33 4 45 15 45 10
0 15 10 15 30 0 20 5 30 15 30 9 0 15 9 15 24 0 14 7 31 15 40 8 8 15 24 15
36 0 11 7 23 15 26 8 4 15 12 15 20 0 8 6 14 14 14 8 0 17 14 21 30 4 17 13
30 21 30 8 0 14 7 14 15 0 8 5 15 10 15 6 0 10 6 10 13 0 15 44 57 59 57 6 0
11 11 11 25 0 16 6 25 15 25 8 0 15 7 15 15 0 8 7 15 15 15 8 0 15 7 15 16 0
9 9 18 20 21 11 3 20 10 20 15 0 5 5 6 10 3 6 -3 10 -1 10 4 0 6 7 11 15 11 8
0 15 7 15 15 0 8 9 15 20 15 11 0 20 7 20 15 0 9 9 15 25 15 14 0 28 7 31 15
4 8 12 15 20 15 8 0 14 6 14 14 0 8 14 17 30 21 17 4 30 10 30 15 0 5 13 11
29 15 16 3 32 13 35 21 3 8 16 14 30 14 13 0 26 7 30 15 3 9 18 15 35 15 16 0
31 5 33 12 2 6 30 13 61 16 39 3 57 9 57 18 0 11 18 14 75 14 60 0 75 3 75 15
0 13 29 15 205 15 176 0 205 -2 205 -15z"/>
<path d="M1653 3013 c-18 -2 -33 -8 -33 -12 0 -5 -27 -11 -59 -15 -38 -4 -61
-12 -65 -21 -3 -9 -18 -15 -36 -15 -20 0 -30 -5 -30 -15 0 -10 -10 -15 -30
-15 -20 0 -30 -5 -30 -15 0 -8 -9 -15 -20 -15 -11 0 -20 -7 -20 -15 0 -9 -9
-15 -25 -15 -16 0 -25 -6 -25 -15 0 -8 -9 -15 -20 -15 -11 0 -20 -7 -20 -15 0
-8 -7 -15 -15 -15 -8 0 -15 -7 -15 -15 0 -8 -7 -15 -15 -15 -8 0 -15 -7 -15
-15 0 -8 -7 -15 -15 -15 -8 0 -15 -7 -15 -15 0 -8 -7 -15 -15 -15 -8 0 -15 -7
-15 -15 0 -8 -7 -15 -15 -15 -8 0 -15 -7 -15 -15 0 -8 -7 -15 -15 -15 -8 0
-15 -9 -15 -20 0 -11 -6 -20 -14 -20 -8 0 -17 -13 -21 -30 -4 -16 -13 -30 -21
-30 -8 0 -14 -6 -14 -14 0 -8 -5 -16 -10 -18 -6 -2 -13 -21 -17 -43 -3 -22
-12 -44 -20 -48 -7 -4 -13 -21 -13 -37 0 -20 -5 -30 -15 -30 -12 0 -15 -15
-15 -71 0 -51 -4 -75 -16 -86 -13 -13 -15 -37 -12 -141 2 -89 7 -127 16 -130
8 -2 12 -25 12 -68 0 -50 3 -64 15 -64 11 0 15 -12 15 -45 0 -32 4 -45 14 -45
8 0 17 -15 20 -35 4 -19 11 -35 16 -35 5 0 12 -11 16 -25 3 -14 10 -25 14 -25
5 0 11 -13 15 -29 3 -16 13 -32 21 -35 8 -3 14 -12 14 -21 0 -8 7 -15 15 -15
8 0 15 -7 15 -15 0 -8 7 -15 15 -15 8 0 15 -7 15 -15 0 -8 7 -15 15 -15 8 0
15 -9 15 -20 0 -11 7 -20 15 -20 8 0 15 -4 15 -10 0 -5 7 -10 15 -10 8 0 15
-7 15 -15 0 -8 7 -15 15 -15 8 0 15 -7 15 -15 0 -8 7 -15 15 -15 9 0 18 -6 21
-14 3 -8 19 -19 35 -25 16 -5 29 -15 29 -20 0 -6 6 -11 14 -11 8 0 16 -5 18
-11 2 -5 22 -13 46 -16 26 -3 42 -11 42 -19 0 -9 12 -14 35 -14 24 0 35 -5 35
-15 0 -12 13 -15 60 -15 47 0 60 -3 60 -15 0 -13 27 -15 185 -15 158 0 185 2
185 15 0 12 13 15 60 15 47 0 60 3 60 15 0 10 11 15 35 15 24 0 35 5 35 15 0
10 10 15 30 15 20 0 30 5 30 15 0 10 10 15 30 15 20 0 30 5 30 15 0 8 6 15 13
15 7 0 23 9 35 20 12 11 26 20 32 20 6 0 13 7 16 15 4 8 12 15 20 15 8 0 14 7
14 15 0 8 7 15 15 15 8 0 15 7 15 15 0 8 7 15 15 15 8 0 15 7 15 15 0 8 7 15
15 15 8 0 15 7 15 15 0 8 7 15 15 15 8 0 15 7 15 15 0 8 7 15 15 15 8 0 15 9
15 19 0 11 7 26 15 35 8 8 15 22 15 30 0 9 7 16 15 16 8 0 15 9 15 19 0 11 7
27 16 36 9 8 18 33 21 55 4 25 11 40 19 40 10 0 14 13 14 41 0 23 7 47 15 55
10 11 15 36 15 85 0 39 4 69 10 69 6 0 10 33 10 80 0 47 -4 80 -10 80 -6 0
-10 32 -10 75 0 57 -3 75 -14 75 -9 0 -15 16 -19 46 -2 26 -9 49 -15 53 -5 3
-13 25 -17 49 -4 26 -12 42 -21 42 -9 0 -14 11 -14 30 0 20 -5 30 -15 30 -10
0 -15 10 -15 30 0 20 -5 30 -15 30 -8 0 -15 7 -15 15 0 8 -7 15 -15 15 -8 0
-15 9 -15 20 0 11 -7 20 -15 20 -8 0 -15 7 -15 15 0 8 -7 15 -15 15 -8 0 -15
7 -15 15 0 8 -7 15 -15 15 -8 0 -15 7 -15 15 0 8 -7 15 -15 15 -8 0 -15 7 -15
15 0 8 -7 15 -15 15 -8 0 -15 7 -15 15 0 8 -9 15 -20 15 -11 0 -20 7 -20 15 0
10 -10 15 -30 15 -20 0 -30 5 -30 15 0 14 -17 20 -47 16 -7 -1 -13 5 -13 14 0
8 -7 15 -15 15 -7 0 -18 6 -22 13 -4 8 -26 17 -47 20 -22 4 -43 11 -46 18 -4
6 -29 14 -56 17 -27 2 -52 10 -56 16 -7 11 -307 18 -375 9z"/>
</g>
</svg>
